<svg width="20" height="20" viewBox="0 0 20 20" fill="none" xmlns="http://www.w3.org/2000/svg">
<circle cx="10" cy="10" r="7.5" stroke="#2F2B3D" stroke-opacity="0.7" stroke-width="1.5" stroke-linecap="round" stroke-linejoin="round"/>
<circle cx="10" cy="10" r="2.5" stroke="#2F2B3D" stroke-opacity="0.9" stroke-width="1.5" stroke-linecap="round" stroke-linejoin="round"/>
<path d="M2.5 9.24998C2.08579 9.24998 1.75 9.58577 1.75 9.99998C1.75 10.4142 2.08579 10.75 2.5 10.75V9.24998ZM7.5 10.75C7.91421 10.75 8.25 10.4142 8.25 9.99998C8.25 9.58577 7.91421 9.24998 7.5 9.24998V10.75ZM12.5 9.24998C12.0858 9.24998 11.75 9.58577 11.75 9.99998C11.75 10.4142 12.0858 10.75 12.5 10.75V9.24998ZM17.5 10.75C17.9142 10.75 18.25 10.4142 18.25 9.99998C18.25 9.58577 17.9142 9.24998 17.5 9.24998V10.75ZM2.5 9.99998V10.75H7.5V9.99998V9.24998H2.5V9.99998ZM12.5 9.99998V10.75H17.5V9.99998V9.24998H12.5V9.99998Z" fill="#2F2B3D" fill-opacity="0.9"/>
</svg>
