<svg width="20" height="20" viewBox="0 0 20 20" fill="none" xmlns="http://www.w3.org/2000/svg">
<path d="M11.6667 2.5V5.83333C11.6667 6.29357 12.0398 6.66667 12.5 6.66667H15.8333" stroke="#2F2B3D" stroke-opacity="0.9" stroke-width="1.5" stroke-linecap="round" stroke-linejoin="round"/>
<path d="M9.58332 18.25C9.99754 18.25 10.3333 17.9142 10.3333 17.5C10.3333 17.0858 9.99754 16.75 9.58332 16.75V18.25ZM11.6667 2.5L12.197 1.96967C12.0563 1.82902 11.8656 1.75 11.6667 1.75V2.5ZM15.8333 6.66667H16.5833C16.5833 6.46775 16.5043 6.27699 16.3637 6.13634L15.8333 6.66667ZM15.0833 10.8333C15.0833 11.2475 15.4191 11.5833 15.8333 11.5833C16.2475 11.5833 16.5833 11.2475 16.5833 10.8333H15.0833ZM11.6667 15.0833C11.2524 15.0833 10.9167 15.4191 10.9167 15.8333C10.9167 16.2475 11.2524 16.5833 11.6667 16.5833V15.0833ZM17.5 16.5833C17.9142 16.5833 18.25 16.2475 18.25 15.8333C18.25 15.4191 17.9142 15.0833 17.5 15.0833V16.5833ZM15.5303 12.803C15.2374 12.5101 14.7626 12.5101 14.4697 12.803C14.1768 13.0959 14.1768 13.5708 14.4697 13.8637L15.5303 12.803ZM17.5 15.8333L18.0303 16.3637C18.3232 16.0708 18.3232 15.5959 18.0303 15.303L17.5 15.8333ZM14.4697 17.803C14.1768 18.0959 14.1768 18.5708 14.4697 18.8637C14.7626 19.1566 15.2374 19.1566 15.5303 18.8637L14.4697 17.803ZM9.58332 17.5V16.75H5.83332V17.5V18.25H9.58332V17.5ZM5.83332 17.5V16.75C5.32706 16.75 4.91666 16.3396 4.91666 15.8333H4.16666H3.41666C3.41666 17.168 4.49863 18.25 5.83332 18.25V17.5ZM4.16666 15.8333H4.91666V4.16667H4.16666H3.41666V15.8333H4.16666ZM4.16666 4.16667H4.91666C4.91666 3.66041 5.32706 3.25 5.83332 3.25V2.5V1.75C4.49863 1.75 3.41666 2.83198 3.41666 4.16667H4.16666ZM5.83332 2.5V3.25H11.6667V2.5V1.75H5.83332V2.5ZM11.6667 2.5L11.1363 3.03033L15.303 7.197L15.8333 6.66667L16.3637 6.13634L12.197 1.96967L11.6667 2.5ZM15.8333 6.66667H15.0833V10.8333H15.8333H16.5833V6.66667H15.8333ZM11.6667 15.8333V16.5833H17.5V15.8333V15.0833H11.6667V15.8333ZM15 13.3333L14.4697 13.8637L16.9697 16.3637L17.5 15.8333L18.0303 15.303L15.5303 12.803L15 13.3333ZM17.5 15.8333L16.9697 15.303L14.4697 17.803L15 18.3333L15.5303 18.8637L18.0303 16.3637L17.5 15.8333Z" fill="#2F2B3D" fill-opacity="0.9"/>
</svg>
