<svg width="20" height="20" viewBox="0 0 20 20" fill="none" xmlns="http://www.w3.org/2000/svg">
<circle cx="10" cy="10" r="7.5" stroke="#2F2B3D" stroke-opacity="0.7" stroke-width="1.5" stroke-linecap="round" stroke-linejoin="round"/>
<path d="M7.7093 13.334C7.47953 13.6786 7.57266 14.1443 7.91731 14.374C8.26195 14.6038 8.72761 14.5107 8.95737 14.166L7.7093 13.334ZM10 11.25L10.624 10.834C10.4849 10.6253 10.2508 10.5 10 10.5C9.74924 10.5 9.51506 10.6253 9.37596 10.834L10 11.25ZM11.0426 14.166C11.2724 14.5107 11.738 14.6038 12.0827 14.374C12.4273 14.1443 12.5205 13.6786 12.2907 13.334L11.0426 14.166ZM9.25 11.25C9.25 11.6642 9.58579 12 10 12C10.4142 12 10.75 11.6642 10.75 11.25H9.25ZM10 9.58333L9.76283 8.87182C9.45657 8.97391 9.25 9.26051 9.25 9.58333H10ZM12.7372 9.46151C13.1301 9.33053 13.3425 8.90579 13.2115 8.51283C13.0805 8.11987 12.6558 7.9075 12.2628 8.03849L12.7372 9.46151ZM7.73717 8.03849C7.34421 7.9075 6.91947 8.11987 6.78849 8.51283C6.6575 8.90579 6.86987 9.33053 7.26283 9.46151L7.73717 8.03849ZM9.76283 10.2948C10.1558 10.4258 10.5805 10.2135 10.7115 9.8205C10.8425 9.42755 10.6301 9.00281 10.2372 8.87182L9.76283 10.2948ZM8.33333 13.75L8.95737 14.166L10.624 11.666L10 11.25L9.37596 10.834L7.7093 13.334L8.33333 13.75ZM10 11.25L9.37596 11.666L11.0426 14.166L11.6667 13.75L12.2907 13.334L10.624 10.834L10 11.25ZM10 11.25H10.75V9.58333H10H9.25V11.25H10ZM10 9.58333L10.2372 10.2948L12.7372 9.46151L12.5 8.75L12.2628 8.03849L9.76283 8.87182L10 9.58333ZM7.5 8.75L7.26283 9.46151L9.76283 10.2948L10 9.58333L10.2372 8.87182L7.73717 8.03849L7.5 8.75Z" fill="#2F2B3D" fill-opacity="0.9"/>
<ellipse cx="10" cy="6.24998" rx="0.416667" ry="0.416667" fill="#2F2B3D" fill-opacity="0.9" stroke="#2F2B3D" stroke-opacity="0.9" stroke-width="1.5" stroke-linecap="round" stroke-linejoin="round"/>
</svg>
