<svg width="34" height="35" viewBox="0 0 34 35" fill="none" xmlns="http://www.w3.org/2000/svg">
<g clip-path="url(#clip0_41_221314)">
<path d="M22 9.52011C22.2041 9.52014 22.4011 9.59507 22.5536 9.73071C22.7062 9.86634 22.8036 10.0532 22.8275 10.2559L22.8333 10.3534V13.6868C22.8333 13.8909 22.7584 14.0879 22.6227 14.2404C22.4871 14.393 22.3002 14.4904 22.0975 14.5143L22 14.5201H19.5V15.3534H22C22.1186 15.3535 22.2359 15.3789 22.3439 15.4279C22.4519 15.4769 22.5483 15.5484 22.6265 15.6376C22.7046 15.7268 22.7629 15.8317 22.7972 15.9452C22.8316 16.0588 22.8414 16.1783 22.8258 16.2959L22.8092 16.3893L21.9758 19.7226C21.9345 19.8872 21.8438 20.0352 21.7161 20.1469C21.5883 20.2586 21.4295 20.3286 21.2608 20.3476L21.1667 20.3534H19.5V25.3534C19.5 25.5576 19.425 25.7546 19.2894 25.9071C19.1538 26.0596 18.9669 26.1571 18.7642 26.1809L18.6667 26.1868H15.3333C15.1292 26.1868 14.9322 26.1118 14.7797 25.9762C14.6272 25.8405 14.5297 25.6537 14.5058 25.4509L14.5 25.3534V20.3534H12.8333C12.6292 20.3534 12.4322 20.2785 12.2797 20.1428C12.1272 20.0072 12.0297 19.8203 12.0058 19.6176L12 19.5201V16.1868C12 15.9827 12.075 15.7857 12.2106 15.6331C12.3462 15.4806 12.5331 15.3832 12.7358 15.3593L12.8333 15.3534H14.5V14.5201C14.5 13.2265 15.0013 11.9831 15.8987 11.0514C16.7961 10.1196 18.0198 9.57196 19.3125 9.52344L19.5 9.52011H22Z" fill="#007BB6"/>
</g>
<defs>
<clipPath id="clip0_41_221314">
<rect width="20" height="20" fill="white" transform="translate(7 7.85345)"/>
</clipPath>
</defs>
</svg>
