<svg width="34" height="35" viewBox="0 0 34 35" fill="none" xmlns="http://www.w3.org/2000/svg">
<g clip-path="url(#clip0_41_221316)">
<path d="M11.4292 9.60347C12.0883 9.5093 13.0125 9.7243 14.2067 10.4085L14.4333 10.5426L14.5667 10.626L14.8975 10.5568C16.159 10.313 17.4533 10.2905 18.7225 10.4901L19.1025 10.5568L19.4325 10.626L19.5667 10.5426C20.7208 9.84263 21.6392 9.56763 22.335 9.58597L22.4717 9.59263L22.5942 9.6068L22.6575 9.61847L22.6992 9.62763L22.8192 9.6668C23.0156 9.74801 23.1736 9.90124 23.2608 10.0951C23.6018 10.8549 23.7167 11.6968 23.5917 12.5201L23.5525 12.7426L23.5142 12.906L23.6167 13.0418C24.095 13.7043 24.3917 14.4818 24.475 15.2976L24.4942 15.5435L24.5 15.7701C24.5 18.9826 23.1175 20.6726 20.63 21.3368L20.4258 21.3876L20.3158 21.4118L20.3275 21.546L20.3342 21.6768L20.3375 21.981L20.3358 22.1585L20.3333 25.3535C20.3333 25.5576 20.2584 25.7546 20.1227 25.9071C19.9871 26.0596 19.8002 26.1571 19.5975 26.181L19.5 26.1868H14.5C14.2959 26.1868 14.0989 26.1118 13.9464 25.9762C13.7938 25.8406 13.6964 25.6537 13.6725 25.451L13.6667 25.3535V24.7418C12.1517 24.9585 11.1417 24.3885 10.2417 23.1768L9.79583 22.5385C9.5625 22.2085 9.41667 22.056 9.305 22.0018L9.265 21.986C9.05867 21.9189 8.88663 21.7741 8.78543 21.5822C8.68423 21.3903 8.66185 21.1665 8.72306 20.9583C8.78426 20.7502 8.92422 20.5741 9.11318 20.4676C9.30215 20.361 9.52522 20.3323 9.735 20.3876C10.27 20.5443 10.63 20.861 11.0433 21.4201L11.4917 22.061C12.125 22.9601 12.625 23.2768 13.6658 23.0535L13.6667 22.4885L13.6517 22.3485C13.6271 22.1204 13.6212 21.8908 13.6342 21.6618L13.6483 21.5076L13.6642 21.4076L13.5742 21.3876C11.0942 20.796 9.655 19.2435 9.51167 16.2718L9.50333 16.0135L9.5 15.7701C9.50096 14.8673 9.76381 13.9841 10.2567 13.2276L10.3833 13.0426L10.485 12.9068L10.4475 12.7435C10.2973 12.0114 10.3389 11.253 10.5683 10.5418L10.6517 10.3068L10.74 10.096C10.827 9.90223 10.9847 9.74902 11.1808 9.66763L11.3008 9.62847L11.4292 9.60347Z" fill="#2F2B3D" fill-opacity="0.9"/>
</g>
<defs>
<clipPath id="clip0_41_221316">
<rect width="20" height="20" fill="white" transform="translate(7 7.85345)"/>
</clipPath>
</defs>
</svg>
