<svg width="34" height="35" viewBox="0 0 34 35" fill="none" xmlns="http://www.w3.org/2000/svg">
<g clip-path="url(#clip0_41_221317)">
<path d="M17 9.52012C18.9085 9.51742 20.7597 10.1725 22.2417 11.3751C22.3353 11.4509 22.4113 11.5461 22.4646 11.6541C22.5178 11.7621 22.5471 11.8804 22.5502 12.0008C22.5534 12.1212 22.5304 12.2408 22.4829 12.3515C22.4354 12.4621 22.3645 12.5612 22.275 12.6418L21.0167 13.7768C20.8737 13.9055 20.6907 13.9808 20.4985 13.9899C20.3064 13.999 20.117 13.9414 19.9625 13.8268C19.1152 13.204 18.0931 12.8643 17.0416 12.8558C15.9901 12.8473 14.9627 13.1706 14.1055 13.7796C13.2483 14.3886 12.6049 15.2524 12.2668 16.2481C11.9287 17.2438 11.9132 18.3208 12.2224 19.3258C12.5316 20.3309 13.1498 21.2129 13.9891 21.8464C14.8283 22.4799 15.846 22.8327 16.8973 22.8546C17.9486 22.8764 18.98 22.5663 19.845 21.9683C20.7099 21.3703 21.3642 20.5148 21.715 19.5235L21.7158 19.5201H18.6658C18.4619 19.5199 18.2651 19.4449 18.1127 19.3092C17.9604 19.1736 17.863 18.9869 17.8392 18.7843L17.8333 18.6868V17.0201C17.8333 16.7991 17.9211 16.5871 18.0774 16.4309C18.2337 16.2746 18.4457 16.1868 18.6667 16.1868H24.4542C24.6593 16.1868 24.8573 16.2624 25.0101 16.3993C25.1629 16.5361 25.2599 16.7245 25.2825 16.9285C25.3158 17.2343 25.3333 17.5426 25.3333 17.8535C25.3333 22.456 21.6025 26.1868 17 26.1868C12.3975 26.1868 8.66667 22.456 8.66667 17.8535C8.66667 13.251 12.3975 9.52012 17 9.52012Z" fill="#FF4C51"/>
</g>
<defs>
<clipPath id="clip0_41_221317">
<rect width="20" height="20" fill="white" transform="translate(7 7.85345)"/>
</clipPath>
</defs>
</svg>
