<svg width="34" height="35" viewBox="0 0 34 35" fill="none" xmlns="http://www.w3.org/2000/svg">
<g clip-path="url(#clip0_41_221315)">
<path d="M18.715 10.6951C17.2092 11.3343 16.2192 12.7393 16.1683 14.3451L16.1667 14.4968L15.9642 14.4776C13.9708 14.2535 12.2158 13.2176 11.0108 11.5351C10.9292 11.4211 10.8202 11.3295 10.6938 11.2688C10.5674 11.2081 10.4277 11.1803 10.2877 11.188C10.1477 11.1956 10.0119 11.2385 9.89284 11.3125C9.77379 11.3866 9.67536 11.4896 9.60667 11.6118L9.52583 11.7668L9.485 11.8493C8.88583 13.0868 8.49333 14.591 8.6375 16.1851L8.6625 16.4126C8.89833 18.2985 9.9125 19.9251 11.8117 21.1451L11.9558 21.2343L11.8883 21.2701C10.7925 21.8226 9.79 22.0635 8.69917 22.0201C7.81917 21.9868 7.49417 23.1635 8.2675 23.5851C11.2658 25.2193 14.485 25.7235 17.2608 24.9185C20.6442 23.9351 23.2208 21.3993 24.2067 17.891L24.3125 17.4785C24.5108 16.651 24.6225 15.8068 24.6467 14.9585L24.6492 14.6818L24.9767 14.0326L25.3433 13.3143L25.5217 12.9526L25.62 12.7468C25.8408 12.276 26 11.886 26.0983 11.5551L26.11 11.5085L26.1167 11.4935C26.3 10.9993 25.9783 10.3618 25.3325 10.3618L25.2308 10.3676C25.165 10.3757 25.1004 10.3917 25.0383 10.4151L24.9667 10.4468C24.7288 10.5623 24.4839 10.6625 24.2333 10.7468L23.9367 10.8426L23.7108 10.9093L23.0675 11.0876C21.9542 10.156 20.4475 10.0426 18.8908 10.626L18.715 10.6951Z" fill="#1DA1F2"/>
</g>
<defs>
<clipPath id="clip0_41_221315">
<rect width="20" height="20" fill="white" transform="translate(7 7.85345)"/>
</clipPath>
</defs>
</svg>
