<svg width="15" height="16" viewBox="0 0 15 16" fill="none" xmlns="http://www.w3.org/2000/svg">
<path d="M3.41683 13.8334C3.26212 13.8334 3.11375 13.7719 3.00435 13.6625C2.89495 13.5531 2.8335 13.4047 2.8335 13.25V2.75002C2.8335 2.59531 2.89495 2.44694 3.00435 2.33754C3.11375 2.22815 3.26212 2.16669 3.41683 2.16669H11.5835C11.7382 2.16669 11.8866 2.22815 11.996 2.33754C12.1054 2.44694 12.1668 2.59531 12.1668 2.75002V4.50002H11.0002V3.33335H4.00016V12.6667H11.0002V11.5H12.1668V13.25C12.1668 13.4047 12.1054 13.5531 11.996 13.6625C11.8866 13.7719 11.7382 13.8334 11.5835 13.8334H3.41683ZM11.0002 10.3334V8.58335H6.91683V7.41669H11.0002V5.66669L13.9168 8.00002L11.0002 10.3334Z" fill="white"/>
</svg>
