<svg width="40" height="40" viewBox="0 0 40 40" fill="none" xmlns="http://www.w3.org/2000/svg">
<g clip-path="url(#clip0_9084_210006)">
<path d="M0 20C0 8.95431 8.95431 0 20 0C31.0457 0 40 8.95431 40 20C40 31.0457 31.0457 40 20 40C8.95431 40 0 31.0457 0 20Z" fill="#9155FD"/>
<path d="M0 20C0 8.95431 8.95431 0 20 0C31.0457 0 40 8.95431 40 20C40 31.0457 31.0457 40 20 40C8.95431 40 0 31.0457 0 20Z" fill="white" fill-opacity="0.88"/>
<path d="M13.9096 25L10.0471 14.155H11.4196L14.7421 23.425L18.0646 14.155H19.4371L15.5821 25H13.9096ZM25.1874 25.15C24.2474 25.15 23.4849 24.995 22.8999 24.685C22.3199 24.375 21.8949 23.92 21.6249 23.32C21.3599 22.72 21.2274 21.9825 21.2274 21.1075V14.155H22.6674V21.3175C22.6674 22.1925 22.8849 22.8475 23.3199 23.2825C23.7549 23.7175 24.3774 23.935 25.1874 23.935C25.7324 23.935 26.1949 23.84 26.5749 23.65C26.9599 23.46 27.2524 23.1725 27.4524 22.7875C27.6574 22.3975 27.7599 21.9075 27.7599 21.3175V14.155H29.1549V21.25C29.1549 22.085 29.0174 22.7925 28.7424 23.3725C28.4674 23.9525 28.0374 24.395 27.4524 24.7C26.8724 25 26.1174 25.15 25.1874 25.15Z" fill="#5EBC3E"/>
</g>
<defs>
<clipPath id="clip0_9084_210006">
<path d="M0 20C0 8.95431 8.95431 0 20 0C31.0457 0 40 8.95431 40 20C40 31.0457 31.0457 40 20 40C8.95431 40 0 31.0457 0 20Z" fill="white"/>
</clipPath>
</defs>
</svg>
